<?xml version="1.0" encoding="UTF-8" standalone="no"?><!DOCTYPE svg PUBLIC "-//W3C//DTD SVG 1.1//EN" "http://www.w3.org/Graphics/SVG/1.1/DTD/svg11.dtd"><!-- Generated by graphviz version 2.40.1 (20161225.0304)
 --><!-- Title: G Pages: 1 --><svg xmlns="http://www.w3.org/2000/svg" xmlns:xlink="http://www.w3.org/1999/xlink" width="154pt" height="152pt" viewBox="0.00 0.00 154.00 152.00">
<g id="graph0" class="graph" transform="scale(1 1) rotate(0) translate(4 148)">
<title>G</title>
<polygon fill="#ffffff" stroke="transparent" points="-4,4 -4,-148 150,-148 150,4 -4,4"/>
<!-- 1 -->
<g id="node1" class="node">
<title>1</title>
<ellipse fill="#d3d3d3" stroke="#000000" cx="78.779" cy="-46.6732" rx="18" ry="11"/>
<text text-anchor="middle" x="78.779" y="-43.6732" font-family="Times,serif" font-size="10.00" fill="#000000">City 1</text>
</g>
<!-- 3 -->
<g id="node3" class="node">
<title>3</title>
<ellipse fill="#d3d3d3" stroke="#000000" cx="18.2653" cy="-45.7312" rx="18" ry="11"/>
<text text-anchor="middle" x="18.2653" y="-42.7312" font-family="Times,serif" font-size="10.00" fill="#000000">City 3</text>
</g>
<!-- 1&#45;&#45;3 -->
<g id="edge13" class="edge">
<title>1--3</title>
<path fill="none" stroke="#00ff00" stroke-width="2" d="M70.5157,-36.8534C59.1626,-31.6427 38.8249,-31.2798 27.1528,-36.0396"/>
</g>
<!-- 4 -->
<g id="node4" class="node">
<title>4</title>
<ellipse fill="#d3d3d3" stroke="#000000" cx="76.371" cy="-103.6354" rx="18" ry="11"/>
<text text-anchor="middle" x="76.371" y="-100.6354" font-family="Times,serif" font-size="10.00" fill="#000000">City 4</text>
</g>
<!-- 1&#45;&#45;4 -->
<g id="edge7" class="edge">
<title>1--4</title>
<path fill="none" stroke="#ff0000" stroke-width="2" d="M62.1184,-51.235C47.5305,-61.5444 46.5524,-86.5136 60.3791,-97.8702"/>
</g>
<!-- 1&#45;&#45;4 -->
<g id="edge10" class="edge">
<title>1--4</title>
<path fill="none" stroke="#0000ff" stroke-width="2" d="M94.4787,-52.2021C108.6475,-63.4742 107.7168,-88.8236 92.9167,-99.1543"/>
</g>
<!-- 1&#45;&#45;4 -->
<g id="edge15" class="edge">
<title>1--4</title>
<path fill="none" stroke="#a020f0" stroke-width="2" d="M88.5188,-56.0012C92.5,-66.7018 91.8331,-84.1177 87.0921,-94.6656"/>
</g>
<!-- 1&#45;&#45;4 -->
<g id="edge18" class="edge">
<title>1--4</title>
<path fill="none" stroke="#ffa500" stroke-width="2" d="M78.3033,-57.9271C77.8811,-67.9133 77.2676,-82.4257 76.8458,-92.4048"/>
</g>
<!-- 2 -->
<g id="node2" class="node">
<title>2</title>
<ellipse fill="#d3d3d3" stroke="#000000" cx="107.3449" cy="-11.1641" rx="18" ry="11"/>
<text text-anchor="middle" x="107.3449" y="-8.1641" font-family="Times,serif" font-size="10.00" fill="#000000">City 2</text>
</g>
<!-- 2&#45;&#45;1 -->
<g id="edge1" class="edge">
<title>2--1</title>
<path fill="none" stroke="#000000" d="M93.126,-4.315C74.7536,-1.0612 60.8398,-19.7886 70.338,-36.937"/>
</g>
<!-- 2&#45;&#45;1 -->
<g id="edge6" class="edge">
<title>2--1</title>
<path fill="none" stroke="#ff0000" stroke-width="2" d="M115.821,-20.9638C125.2483,-38.0922 111.352,-56.7663 93.0065,-53.5238"/>
</g>
<!-- 2&#45;&#45;1 -->
<g id="edge9" class="edge">
<title>2--1</title>
<path fill="none" stroke="#0000ff" stroke-width="2" d="M110.923,-22.1753C109.767,-29.9087 103.6369,-38.9335 96.5494,-44.257"/>
</g>
<!-- 2&#45;&#45;1 -->
<g id="edge12" class="edge">
<title>2--1</title>
<path fill="none" stroke="#00ff00" stroke-width="2" d="M99.2355,-21.2446C95.4087,-26.0015 90.8498,-31.6685 87.0079,-36.4442"/>
</g>
<!-- 2&#45;&#45;1 -->
<g id="edge14" class="edge">
<title>2--1</title>
<path fill="none" stroke="#a020f0" stroke-width="2" d="M89.6438,-13.5284C82.5039,-18.8623 76.3208,-27.9622 75.1898,-35.7374"/>
</g>
<!-- 3&#45;&#45;1 -->
<g id="edge2" class="edge">
<title>3--1</title>
<path fill="none" stroke="#000000" d="M26.5286,-55.5509C37.8817,-60.7616 58.2194,-61.1245 69.8915,-56.3647"/>
</g>
<!-- 3&#45;&#45;1 -->
<g id="edge17" class="edge">
<title>3--1</title>
<path fill="none" stroke="#ffa500" stroke-width="2" d="M36.4214,-46.0138C44.0805,-46.133 52.9781,-46.2715 60.6357,-46.3907"/>
</g>
<!-- 4&#45;&#45;1 -->
<g id="edge3" class="edge">
<title>4--1</title>
<path fill="none" stroke="#000000" d="M66.6313,-94.3074C62.65,-83.6068 63.317,-66.1908 68.058,-55.6429"/>
</g>
<!-- 5 -->
<g id="node5" class="node">
<title>5</title>
<ellipse fill="#d3d3d3" stroke="#000000" cx="127.5807" cy="-123.2617" rx="18" ry="11"/>
<text text-anchor="middle" x="127.5807" y="-120.2617" font-family="Times,serif" font-size="10.00" fill="#000000">City 5</text>
</g>
<!-- 4&#45;&#45;5 -->
<g id="edge16" class="edge">
<title>4--5</title>
<path fill="none" stroke="#a020f0" stroke-width="2" d="M79.3477,-114.6593C86.0403,-122.4525 100.9276,-128.9047 112.5281,-129.6155"/>
</g>
<!-- 4&#45;&#45;5 -->
<g id="edge19" class="edge">
<title>4--5</title>
<path fill="none" stroke="#ffa500" stroke-width="2" d="M91.2652,-97.2722C102.8648,-97.9322 117.8205,-104.3829 124.5632,-112.1905"/>
</g>
<!-- 6 -->
<g id="node6" class="node">
<title>6</title>
<ellipse fill="#d3d3d3" stroke="#000000" cx="30.4869" cy="-132.7956" rx="18" ry="11"/>
<text text-anchor="middle" x="30.4869" y="-129.7956" font-family="Times,serif" font-size="10.00" fill="#000000">City 6</text>
</g>
<!-- 4&#45;&#45;6 -->
<g id="edge8" class="edge">
<title>4--6</title>
<path fill="none" stroke="#ff0000" stroke-width="2" d="M58.958,-100.772C48.0007,-104.154 35.551,-113.1415 30.9724,-121.7837"/>
</g>
<!-- 4&#45;&#45;6 -->
<g id="edge11" class="edge">
<title>4--6</title>
<path fill="none" stroke="#0000ff" stroke-width="2" d="M75.6946,-114.9997C71.0015,-123.4739 58.8769,-132.2019 48.1235,-135.5893"/>
</g>
<!-- 5&#45;&#45;4 -->
<g id="edge4" class="edge">
<title>5--4</title>
<path fill="none" stroke="#000000" d="M112.2161,-117.3731C105.7346,-114.8891 98.2051,-112.0034 91.7248,-109.5198"/>
</g>
<!-- 6&#45;&#45;4 -->
<g id="edge5" class="edge">
<title>6--4</title>
<path fill="none" stroke="#000000" d="M43.025,-124.8275C49.4993,-120.7129 57.376,-115.7071 63.8482,-111.5939"/>
</g>
</g>
</svg>