<?xml version="1.0" encoding="UTF-8" standalone="no"?><!DOCTYPE svg PUBLIC "-//W3C//DTD SVG 1.1//EN" "http://www.w3.org/Graphics/SVG/1.1/DTD/svg11.dtd"><!-- Generated by graphviz version 2.40.1 (20161225.0304)
 --><!-- Title: G Pages: 1 --><svg xmlns="http://www.w3.org/2000/svg" xmlns:xlink="http://www.w3.org/1999/xlink" width="154pt" height="152pt" viewBox="0.00 0.00 154.00 152.00">
<g id="graph0" class="graph" transform="scale(1 1) rotate(0) translate(4 148)">
<title>G</title>
<polygon fill="#ffffff" stroke="transparent" points="-4,4 -4,-148 150,-148 150,4 -4,4"/>
<!-- 1 -->
<g id="node1" class="node">
<title>1</title>
<ellipse fill="#d3d3d3" stroke="#000000" cx="78.779" cy="-46.6732" rx="18" ry="11"/>
<text text-anchor="middle" x="78.779" y="-43.6732" font-family="Times,serif" font-size="10.00" fill="#000000">City 1</text>
</g>
<!-- 3 -->
<g id="node3" class="node">
<title>3</title>
<ellipse fill="#d3d3d3" stroke="#000000" cx="18.2653" cy="-45.7312" rx="18" ry="11"/>
<text text-anchor="middle" x="18.2653" y="-42.7312" font-family="Times,serif" font-size="10.00" fill="#000000">City 3</text>
</g>
<!-- 1&#45;&#45;3 -->
<!-- 4 -->
<g id="node4" class="node">
<title>4</title>
<ellipse fill="#d3d3d3" stroke="#000000" cx="76.371" cy="-103.6354" rx="18" ry="11"/>
<text text-anchor="middle" x="76.371" y="-100.6354" font-family="Times,serif" font-size="10.00" fill="#000000">City 4</text>
</g>
<!-- 1&#45;&#45;4 -->
<!-- 1&#45;&#45;4 -->
<!-- 1&#45;&#45;4 -->
<!-- 1&#45;&#45;4 -->
<!-- 2 -->
<g id="node2" class="node">
<title>2</title>
<ellipse fill="#d3d3d3" stroke="#000000" cx="107.3449" cy="-11.1641" rx="18" ry="11"/>
<text text-anchor="middle" x="107.3449" y="-8.1641" font-family="Times,serif" font-size="10.00" fill="#000000">City 2</text>
</g>
<!-- 2&#45;&#45;1 -->
<g id="edge1" class="edge">
<title>2--1</title>
<path fill="none" stroke="#000000" d="M93.126,-4.315C74.7536,-1.0612 60.8398,-19.7886 70.338,-36.937"/>
</g>
<!-- 2&#45;&#45;1 -->
<!-- 2&#45;&#45;1 -->
<!-- 2&#45;&#45;1 -->
<!-- 2&#45;&#45;1 -->
<!-- 3&#45;&#45;1 -->
<g id="edge2" class="edge">
<title>3--1</title>
<path fill="none" stroke="#000000" d="M26.5286,-55.5509C37.8817,-60.7616 58.2194,-61.1245 69.8915,-56.3647"/>
</g>
<!-- 3&#45;&#45;1 -->
<!-- 4&#45;&#45;1 -->
<g id="edge3" class="edge">
<title>4--1</title>
<path fill="none" stroke="#000000" d="M66.6313,-94.3074C62.65,-83.6068 63.317,-66.1908 68.058,-55.6429"/>
</g>
<!-- 5 -->
<g id="node5" class="node">
<title>5</title>
<ellipse fill="#d3d3d3" stroke="#000000" cx="127.5807" cy="-123.2617" rx="18" ry="11"/>
<text text-anchor="middle" x="127.5807" y="-120.2617" font-family="Times,serif" font-size="10.00" fill="#000000">City 5</text>
</g>
<!-- 4&#45;&#45;5 -->
<!-- 4&#45;&#45;5 -->
<!-- 6 -->
<g id="node6" class="node">
<title>6</title>
<ellipse fill="#d3d3d3" stroke="#000000" cx="30.4869" cy="-132.7956" rx="18" ry="11"/>
<text text-anchor="middle" x="30.4869" y="-129.7956" font-family="Times,serif" font-size="10.00" fill="#000000">City 6</text>
</g>
<!-- 4&#45;&#45;6 -->
<!-- 4&#45;&#45;6 -->
<!-- 5&#45;&#45;4 -->
<g id="edge4" class="edge">
<title>5--4</title>
<path fill="none" stroke="#000000" d="M112.2161,-117.3731C105.7346,-114.8891 98.2051,-112.0034 91.7248,-109.5198"/>
</g>
<!-- 6&#45;&#45;4 -->
<g id="edge5" class="edge">
<title>6--4</title>
<path fill="none" stroke="#000000" d="M43.025,-124.8275C49.4993,-120.7129 57.376,-115.7071 63.8482,-111.5939"/>
</g>
</g>
</svg>